<svg version="1.1" xmlns="http://www.w3.org/2000/svg" xmlns:xlink="http://www.w3.org/1999/xlink" viewBox="-2160.5 -1632.5 4440 1792">
<g id="Layer_2">
	<circle fill="#292B39" cx="118.55" cy="-1063.096" r="530.529"/>
</g>
<g id="Layer_7">
	<path fill="#226468" d="M121.71-1581.083L121.71-1581.083l0,515.197l311.167,412.878
		c120.837-89.024,204.458-239.872,204.458-413.346C637.335-1344.436,412.049-1581.083,121.71-1581.083z"/>
</g>
<g id="Layer_5">
	<g>
		<path fill="#829D8F" d="M133.368-558.649l-2.077-87.975c1.488-0.036,2.975-0.079,4.459-0.132l3.071,87.947
			C137.006-558.746,135.188-558.692,133.368-558.649z M68.234-561.203c-1.81-0.188-3.616-0.383-5.419-0.59l10.017-87.428
			c1.487,0.17,2.976,0.331,4.466,0.486L68.234-561.203z M203.779-565.246l-14.35-86.822c1.493-0.247,2.984-0.5,4.473-0.761
			l15.207,86.676C207.336-565.842,205.56-565.54,203.779-565.246z M-1.438-573.366c-1.762-0.437-3.52-0.883-5.274-1.338
			l22.099-85.18c1.453,0.377,2.908,0.745,4.366,1.107L-1.438-573.366z M272.592-581.597l-26.33-83.969
			c1.438-0.451,2.874-0.909,4.307-1.374l27.189,83.693C276.04-582.688,274.317-582.138,272.592-581.597z M-68.789-595.188
			c-1.685-0.681-3.366-1.37-5.042-2.067l33.812-81.246c1.393,0.58,2.789,1.152,4.189,1.718L-68.789-595.188z M338.424-607.421
			l-37.766-79.484c1.342-0.638,2.679-1.283,4.013-1.936l38.666,79.051C341.704-608.991,340.066-608.201,338.424-607.421z
			 M-132.401-626.222c-1.572-0.909-3.14-1.826-4.701-2.751l44.837-75.721c1.295,0.767,2.594,1.527,3.897,2.28L-132.401-626.222z
			 M399.979-642.173l-48.502-73.428c1.253-0.827,2.5-1.661,3.743-2.5l49.268,72.914C402.991-644.174,401.488-643.17,399.979-642.173
			z M-191.028-665.793c-1.424-1.113-2.843-2.234-4.255-3.362l54.903-68.771c1.179,0.94,2.362,1.876,3.551,2.806L-191.028-665.793z
			 M456.107-685.137l-58.238-65.973c1.131-0.998,2.257-2.003,3.378-3.013l58.898,65.385
			C458.806-687.53,457.459-686.33,456.107-685.137z M-243.562-713.068c-1.26-1.303-2.512-2.612-3.758-3.929l63.9-60.504
			c1.032,1.09,2.069,2.175,3.113,3.253L-243.562-713.068z M505.72-735.426l-66.764-57.33c0.977-1.137,1.946-2.279,2.91-3.427
			l67.383,56.602C508.08-738.189,506.903-736.805,505.72-735.426z M-289.052-767.16c-1.064-1.461-2.122-2.929-3.172-4.402
			l71.663-51.072c0.871,1.222,1.748,2.439,2.632,3.652L-289.052-767.16z M547.924-792.137l-74.055-47.539
			c0.807-1.256,1.605-2.517,2.397-3.782l74.592,46.691C549.889-795.218,548.91-793.674,547.924-792.137z M-326.594-827.028
			c-0.851-1.595-1.693-3.193-2.527-4.797l78.064-40.619c0.691,1.328,1.389,2.652,2.094,3.973L-326.594-827.028z M581.874-854.241
			l-79.979-36.707c0.626-1.363,1.243-2.73,1.854-4.102l80.379,35.822C583.387-857.562,582.635-855.899,581.874-854.241z
			 M-355.449-891.605c-0.623-1.706-1.237-3.417-1.842-5.133l82.99-29.27c0.499,1.413,1.004,2.821,1.518,4.227L-355.449-891.605z
			 M606.811-920.521l-84.338-25.119c0.427-1.434,0.847-2.87,1.258-4.311l84.609,24.195
			C607.839-924.007,607.329-922.262,606.811-920.521z M-374.979-959.611c-0.376-1.771-0.743-3.545-1.102-5.322l86.266-17.383
			c0.297,1.475,0.602,2.946,0.914,4.416L-374.979-959.611z M622.193-989.567l-87.023-13.076c0.223-1.479,0.437-2.962,0.644-4.445
			l87.16,12.125C622.724-993.162,622.463-991.363,622.193-989.567z M-384.805-1029.636c-0.126-1.804-0.243-3.612-0.35-5.422
			l87.846-5.205c0.089,1.503,0.186,3.003,0.291,4.502L-384.805-1029.636z M627.81-1060.001l-87.994-0.935
			c0.016-1.49,0.023-2.982,0.023-4.477l-0.002-0.816l88-0.278l0.002,1.066C627.839-1063.625,627.829-1061.812,627.81-1060.001z
			 M-297.075-1094.292l-87.798-5.957c0.123-1.813,0.255-3.624,0.398-5.432l87.729,6.904
			C-296.864-1097.284-296.973-1095.789-297.075-1094.292z M536.304-1120.149c-0.194-1.495-0.396-2.986-0.607-4.475l87.137-12.3
			c0.253,1.79,0.495,3.583,0.73,5.378L536.304-1120.149z M-289.071-1152.176l-86.116-18.109c0.374-1.779,0.757-3.554,1.15-5.326
			l85.916,19.04C-288.445-1155.109-288.762-1153.644-289.071-1152.176z M524.715-1177.427c-0.396-1.437-0.801-2.869-1.213-4.299
			l84.553-24.388c0.506,1.753,1.002,3.51,1.488,5.271L524.715-1177.427z M-273.054-1208.359l-82.719-30.025
			c0.619-1.707,1.248-3.41,1.885-5.109l82.404,30.879C-272.014-1211.199-272.538-1209.781-273.054-1208.359z M505.241-1232.445
			c-0.597-1.37-1.2-2.737-1.811-4.1l80.305-35.986c0.739,1.649,1.47,3.302,2.191,4.96L505.241-1232.445z M-249.304-1261.771
			l-77.708-41.298c0.854-1.607,1.717-3.209,2.588-4.806l77.257,42.135C-247.887-1264.42-248.599-1263.098-249.304-1261.771z
			 M478.263-1284.203c-0.782-1.275-1.57-2.545-2.366-3.811l74.498-46.841c0.964,1.533,1.92,3.073,2.868,4.618L478.263-1284.203z
			 M-218.329-1311.348l-71.197-51.721c1.066-1.467,2.14-2.929,3.221-4.385l70.648,52.468
			C-216.554-1313.777-217.444-1312.565-218.329-1311.348z M444.332-1331.738c-0.964-1.167-1.932-2.329-2.905-3.485l67.307-56.69
			c1.159,1.376,2.311,2.758,3.456,4.146L444.332-1331.738z M-180.757-1356.167l-63.356-61.074c1.26-1.307,2.528-2.608,3.802-3.902
			l62.69,61.757C-178.672-1358.319-179.717-1357.246-180.757-1356.167z M404.075-1374.189c-1.104-1.013-2.215-2.021-3.33-3.022
			l58.807-65.467c1.351,1.214,2.696,2.435,4.034,3.663L404.075-1374.189z M-137.359-1395.345l-54.296-69.253
			c1.423-1.115,2.852-2.224,4.287-3.325l53.569,69.816C-134.991-1397.191-136.178-1396.271-137.359-1395.345z M358.364-1410.634
			c-1.237-0.853-2.479-1.699-3.726-2.539l49.154-72.993c1.507,1.015,3.008,2.038,4.503,3.068L358.364-1410.634z M-88.987-1428.109
			l-44.158-76.119c1.567-0.909,3.14-1.81,4.717-2.703l43.327,76.595C-86.4-1429.601-87.696-1428.858-88.987-1428.109z
			 M308.036-1440.377c-1.348-0.674-2.699-1.341-4.055-2.001l38.525-79.119c1.633,0.795,3.261,1.599,4.885,2.41L308.036-1440.377z
			 M-36.585-1453.793l-33.094-81.54c1.682-0.683,3.368-1.356,5.058-2.021l32.213,81.892
			C-33.805-1454.913-35.197-1454.356-36.585-1453.793z M254.06-1462.791c-1.426-0.478-2.854-0.947-4.286-1.409l27.037-83.744
			c1.738,0.561,3.472,1.131,5.2,1.71L254.06-1462.791z M18.933-1471.901l-21.35-85.371c1.763-0.44,3.528-0.872,5.297-1.294
			l20.415,85.6C21.839-1472.62,20.385-1472.265,18.933-1471.901z M197.495-1477.406c-1.472-0.272-2.943-0.536-4.419-0.792
			l15.055-86.703c1.792,0.312,3.581,0.632,5.368,0.962L197.495-1477.406z M76.45-1482.06l-9.214-87.517
			c1.801-0.189,3.604-0.37,5.411-0.541l8.287,87.609C79.437-1482.366,77.942-1482.217,76.45-1482.06z M139.418-1483.983
			c-1.497-0.065-2.996-0.123-4.497-0.172l2.9-87.952c1.815,0.06,3.629,0.129,5.439,0.208L139.418-1483.983z"/>
	</g>
</g>
<g id="Layer_6">
	<circle fill="none" stroke="#829D8F" stroke-width="5" stroke-miterlimit="10" cx="120.894" cy="-1065.44" r="392.449"/>
	<path fill="none" stroke="#829D8F" stroke-width="5" stroke-miterlimit="10" d="M120.708-1455.495
		c-305.726,61.7-303.001,721.137,0.186,781.061"/>
	<path fill="none" stroke="#829D8F" stroke-width="5" stroke-miterlimit="10" d="M120.374-674.913
		c305.354-61.626,303.906-720.731,1.087-780.582"/>
	
		<line fill="none" stroke="#829D8F" stroke-width="5" stroke-miterlimit="10" x1="120.894" y1="-1455.871" x2="120.894" y2="-674.862"/>
	
		<line fill="none" stroke="#829D8F" stroke-width="5" stroke-miterlimit="10" x1="-273.055" y1="-1065.37" x2="514.842" y2="-1065.37"/>
</g>
<g id="Capa_1">
	<path fill="#FFFFFF" d="M376.185-1314.126c-15.93-15.93-43.807-15.931-59.736,0l-109.521,109.518l-258.863-59.737l-39.824,39.824
		l209.08,109.52L7.803-1005.481l-69.694-9.956l-29.868,29.867l89.605,49.782l49.782,89.607l29.869-29.871l-9.956-69.693
		l109.518-109.519l109.519,209.083l39.824-39.826l-59.737-258.864l109.52-109.518
		C392.115-1270.319,392.115-1298.195,376.185-1314.126z"/>
	<g>
		<path fill="#FFFFFF" d="M-1780.393-318.891c-8.87-11.2-20.891-19.479-36.05-24.85c-15.17-5.359-29.521-8.05-43.05-8.05
			c-7.94,0-16.1,0.94-24.5,2.8c-8.4,1.871-16.34,4.791-23.8,8.75c-7.47,3.97-13.541,9.22-18.2,15.75c-4.67,6.541-7,14.47-7,23.8
			c0,14.94,5.6,26.37,16.8,34.3c11.2,7.94,25.309,14.7,42.35,20.3c17.029,5.6,35.35,11.2,54.95,16.8s37.91,13.541,54.95,23.8
			c17.03,10.271,31.15,24.041,42.35,41.3c11.2,17.27,16.8,40.37,16.8,69.3c0,27.54-5.141,51.57-15.4,72.101
			c-10.271,20.54-24.15,37.57-41.65,51.1c-17.5,13.541-37.8,23.57-60.9,30.1c-23.1,6.529-47.49,9.801-73.15,9.801
			c-32.2,0-62.07-4.9-89.6-14.701c-27.541-9.799-53.2-25.658-77-47.6l77.7-85.4c11.2,14.941,25.31,26.491,42.35,34.65
			c17.03,8.17,34.65,12.25,52.85,12.25c8.859,0,17.85-1.05,26.95-3.15c9.1-2.1,17.259-5.25,24.5-9.449
			c7.23-4.2,13.06-9.56,17.5-16.1c4.43-6.53,6.65-14.23,6.65-23.101c0-14.93-5.72-26.71-17.15-35.351
			c-11.44-8.629-25.791-15.979-43.05-22.049c-17.271-6.061-35.941-12.131-56-18.201c-20.07-6.059-38.741-14.229-56-24.5
			c-17.271-10.259-31.621-23.799-43.05-40.6c-11.44-16.8-17.15-38.959-17.15-66.5c0-26.6,5.25-49.93,15.75-70
			c10.5-20.059,24.5-36.859,42-50.4c17.5-13.53,37.68-23.68,60.55-30.45c22.859-6.76,46.43-10.15,70.7-10.15
			c28,0,55.06,3.971,81.2,11.9c26.129,7.94,49.7,21.24,70.7,39.9L-1780.393-318.891z"/>
		<path fill="#FFFFFF" d="M-1619.4-439.991h109.2v394.8h202.3v100.8h-311.5V-439.991z"/>
		<path fill="#FFFFFF" d="M-1243.509-439.991h336.7v100.8h-227.5v92.4h214.9v100.799h-214.9V-45.19h240.1v100.8h-349.299V-439.991z"
			/>
		<path fill="#FFFFFF" d="M-802.516-439.991h336.699v100.8h-227.5v92.4h214.9v100.799h-214.9V-45.19h240.102v100.8h-349.301
			V-439.991z"/>
		<path fill="#FFFFFF" d="M-365.723-439.991h184.1c25.658,0,49.93,2.341,72.799,7c22.859,4.67,42.811,12.72,59.852,24.15
			c17.029,11.441,30.559,26.841,40.6,46.2c10.029,19.37,15.049,43.75,15.049,73.15c0,28.941-4.67,53.2-14,72.8
			c-9.34,19.6-22.17,35.24-38.5,46.9c-16.34,11.67-35.699,19.949-58.1,24.85s-46.67,7.35-72.799,7.35h-79.801v193.2h-109.199
			V-439.991z M-256.524-229.991h72.801c9.799,0,19.25-0.93,28.35-2.8c9.1-1.859,17.26-5.009,24.5-9.45
			c7.229-4.43,13.059-10.5,17.5-18.2c4.43-7.7,6.65-17.38,6.65-29.05c0-12.6-2.922-22.75-8.75-30.45
			c-5.842-7.7-13.301-13.65-22.4-17.85c-9.1-4.2-19.25-6.88-30.451-8.05c-11.199-1.159-21.939-1.75-32.199-1.75h-56V-229.991z"/>
	</g>
	<g>
		<path fill="#FFFFFF" d="M506.7-318.891c-8.87-11.199-20.891-19.479-36.05-24.85c-15.171-5.359-29.521-8.05-43.05-8.05
			c-7.941,0-16.1,0.94-24.5,2.8c-8.4,1.871-16.341,4.791-23.801,8.75c-7.47,3.971-13.54,9.221-18.199,15.75
			c-4.67,6.541-7,14.471-7,23.801c0,14.939,5.6,26.369,16.8,34.299c11.2,7.941,25.31,14.701,42.351,20.301
			c17.029,5.6,35.35,11.199,54.949,16.8s37.91,13.54,54.95,23.8c17.03,10.271,31.149,24.04,42.351,41.3
			C576.7-146.92,582.3-123.819,582.3-94.89c0,27.54-5.141,51.57-15.399,72.1c-10.271,20.541-24.149,37.57-41.649,51.1
			c-17.5,13.541-37.801,23.57-60.9,30.1c-23.1,6.53-47.49,9.801-73.15,9.801c-32.199,0-62.07-4.9-89.6-14.7
			c-27.541-9.8-53.2-25.659-77-47.601L302.3-79.49c11.201,14.94,25.311,26.491,42.351,34.649c17.03,8.171,34.649,12.25,52.851,12.25
			c8.859,0,17.85-1.049,26.949-3.149s17.26-5.25,24.5-9.45c7.23-4.199,13.06-9.559,17.5-16.1c4.43-6.529,6.65-14.23,6.65-23.1
			c0-14.93-5.721-26.71-17.15-35.351c-11.44-8.63-25.791-15.979-43.05-22.05c-17.271-6.06-35.94-12.13-56-18.2
			c-20.07-6.06-38.741-14.229-56-24.5c-17.271-10.259-31.62-23.8-43.05-40.6c-11.441-16.801-17.15-38.959-17.15-66.5
			c0-26.6,5.25-49.93,15.75-70c10.5-20.06,24.5-36.86,42-50.4c17.5-13.53,37.68-23.68,60.551-30.45
			c22.859-6.76,46.43-10.15,70.699-10.15c28,0,55.06,3.971,81.2,11.9c26.13,7.94,49.7,21.24,70.7,39.9L506.7-318.891z"/>
		<path fill="#FFFFFF" d="M663.493-439.99h109.2v184.801h212.101V-439.99h109.199V55.61H984.794v-214.201H772.693V55.61h-109.2
			V-439.99z"/>
		<path fill="#FFFFFF" d="M1193.384-439.99h109.201V55.61h-109.201V-439.99z"/>
		<path fill="#FFFFFF" d="M1406.178-439.99h332.5v100.801h-223.3v100.799h206.5v100.8h-206.5V55.61h-109.2V-439.99z"/>
		<path fill="#FFFFFF" d="M1912.968-343.391h-141.399v-96.6h392.001v96.6h-141.4V55.61h-109.201V-343.391z"/>
	</g>
</g>
</svg>
