<svg version="1.1" xmlns="http://www.w3.org/2000/svg" xmlns:xlink="http://www.w3.org/1999/xlink" viewBox="-2480.5 -291.005 5280 1075.005">
<g id="Layer_2">
	<circle fill="#292B39" cx="236.215" cy="248.904" r="530.529"/>
</g>
<g id="Layer_7">
	<path fill="#226468" d="M239.375-269.083L239.375-269.083l0,515.197l311.167,412.878C671.379,569.968,755,419.12,755,245.646
		C755-32.436,529.714-269.083,239.375-269.083z"/>
</g>
<g id="Layer_5">
	<g>
		<path fill="#829D8F" d="M251.033,753.351l-2.077-87.975c1.488-0.036,2.975-0.079,4.459-0.132l3.071,87.947
			C254.671,753.254,252.853,753.308,251.033,753.351z M185.899,750.797c-1.81-0.188-3.616-0.383-5.419-0.59l10.017-87.428
			c1.487,0.17,2.976,0.331,4.466,0.486L185.899,750.797z M321.444,746.754l-14.35-86.822c1.493-0.247,2.984-0.5,4.473-0.761
			l15.207,86.676C325.001,746.158,323.225,746.46,321.444,746.754z M116.228,738.634c-1.762-0.437-3.52-0.883-5.274-1.338
			l22.099-85.18c1.453,0.377,2.908,0.745,4.366,1.107L116.228,738.634z M390.257,730.403l-26.33-83.969
			c1.438-0.451,2.874-0.909,4.307-1.374l27.189,83.693C393.705,729.312,391.982,729.862,390.257,730.403z M48.876,716.812
			c-1.685-0.681-3.366-1.37-5.042-2.067l33.812-81.246c1.393,0.58,2.789,1.152,4.189,1.718L48.876,716.812z M456.089,704.579
			l-37.766-79.484c1.342-0.638,2.679-1.283,4.013-1.936l38.666,79.051C459.369,703.009,457.731,703.799,456.089,704.579z
			 M-14.736,685.778c-1.572-0.909-3.14-1.826-4.701-2.751l44.837-75.721c1.295,0.767,2.594,1.527,3.897,2.28L-14.736,685.778z
			 M517.645,669.827l-48.502-73.428c1.253-0.827,2.5-1.661,3.743-2.5l49.268,72.914C520.656,667.826,519.153,668.83,517.645,669.827
			z M-73.363,646.207c-1.424-1.113-2.843-2.234-4.255-3.362l54.903-68.771c1.179,0.94,2.362,1.876,3.551,2.806L-73.363,646.207z
			 M573.772,626.863l-58.238-65.973c1.131-0.998,2.257-2.003,3.378-3.013l58.898,65.385
			C576.471,624.47,575.124,625.67,573.772,626.863z M-125.896,598.932c-1.26-1.303-2.512-2.612-3.758-3.929l63.9-60.504
			c1.032,1.09,2.069,2.175,3.113,3.253L-125.896,598.932z M623.385,576.574l-66.764-57.33c0.977-1.137,1.946-2.279,2.91-3.427
			l67.383,56.602C625.745,573.811,624.568,575.195,623.385,576.574z M-171.387,544.84c-1.064-1.461-2.122-2.929-3.172-4.402
			l71.663-51.072c0.871,1.222,1.748,2.439,2.632,3.652L-171.387,544.84z M665.589,519.863l-74.055-47.539
			c0.807-1.256,1.605-2.517,2.397-3.782l74.592,46.691C667.554,516.782,666.575,518.326,665.589,519.863z M-208.929,484.972
			c-0.851-1.595-1.693-3.193-2.527-4.797l78.064-40.619c0.691,1.328,1.389,2.652,2.094,3.973L-208.929,484.972z M699.539,457.759
			l-79.979-36.707c0.626-1.363,1.243-2.73,1.854-4.102l80.379,35.822C701.052,454.438,700.3,456.101,699.539,457.759z
			 M-237.784,420.395c-0.623-1.706-1.237-3.417-1.842-5.133l82.99-29.27c0.499,1.413,1.004,2.821,1.518,4.227L-237.784,420.395z
			 M724.476,391.479l-84.338-25.119c0.427-1.434,0.847-2.87,1.258-4.311l84.609,24.195
			C725.504,387.993,724.994,389.738,724.476,391.479z M-257.314,352.389c-0.376-1.771-0.743-3.545-1.102-5.322l86.266-17.383
			c0.297,1.475,0.602,2.946,0.914,4.416L-257.314,352.389z M739.858,322.433l-87.023-13.076c0.223-1.479,0.437-2.962,0.644-4.445
			l87.16,12.125C740.389,318.838,740.128,320.637,739.858,322.433z M-267.14,282.364c-0.126-1.804-0.243-3.612-0.35-5.422
			l87.846-5.205c0.089,1.503,0.186,3.003,0.291,4.502L-267.14,282.364z M745.475,251.999l-87.994-0.935
			c0.016-1.49,0.023-2.982,0.023-4.477l-0.002-0.816l88-0.278l0.002,1.066C745.504,248.375,745.494,250.188,745.475,251.999z
			 M-179.41,217.708l-87.798-5.957c0.123-1.813,0.255-3.624,0.398-5.432l87.729,6.904
			C-179.199,214.716-179.308,216.211-179.41,217.708z M653.969,191.851c-0.194-1.495-0.396-2.986-0.607-4.475l87.137-12.3
			c0.253,1.79,0.495,3.583,0.73,5.378L653.969,191.851z M-171.406,159.824l-86.116-18.109c0.374-1.779,0.757-3.554,1.15-5.326
			l85.916,19.04C-170.78,156.891-171.097,158.356-171.406,159.824z M642.38,134.573c-0.396-1.437-0.801-2.869-1.213-4.299
			l84.553-24.388c0.506,1.753,1.002,3.51,1.488,5.271L642.38,134.573z M-155.389,103.641l-82.719-30.025
			c0.619-1.707,1.248-3.41,1.885-5.109l82.404,30.879C-154.349,100.801-154.873,102.219-155.389,103.641z M622.906,79.555
			c-0.597-1.37-1.2-2.737-1.811-4.1L701.4,39.469c0.739,1.649,1.47,3.302,2.191,4.96L622.906,79.555z M-131.639,50.229
			l-77.708-41.298c0.854-1.607,1.717-3.209,2.588-4.806l77.257,42.135C-130.222,47.58-130.934,48.902-131.639,50.229z
			 M595.928,27.797c-0.782-1.275-1.57-2.545-2.366-3.811l74.498-46.841c0.964,1.533,1.92,3.073,2.868,4.618L595.928,27.797z
			 M-100.664,0.652l-71.197-51.721c1.066-1.467,2.14-2.929,3.221-4.385l70.648,52.468C-98.889-1.777-99.779-0.565-100.664,0.652z
			 M561.997-19.738c-0.964-1.167-1.932-2.329-2.905-3.485l67.307-56.69c1.159,1.376,2.311,2.758,3.456,4.146L561.997-19.738z
			 M-63.092-44.167l-63.356-61.074c1.26-1.307,2.528-2.608,3.802-3.902l62.69,61.757C-61.007-46.319-62.052-45.246-63.092-44.167z
			 M521.74-62.189c-1.104-1.013-2.215-2.021-3.33-3.022l58.807-65.467c1.351,1.214,2.696,2.435,4.034,3.663L521.74-62.189z
			 M-19.694-83.345l-54.296-69.253c1.423-1.115,2.852-2.224,4.287-3.325l53.569,69.816C-17.326-85.191-18.513-84.271-19.694-83.345z
			 M476.029-98.634c-1.237-0.853-2.479-1.699-3.726-2.539l49.154-72.993c1.507,1.015,3.008,2.038,4.503,3.068L476.029-98.634z
			 M28.678-116.109l-44.158-76.119c1.567-0.909,3.14-1.81,4.717-2.703l43.327,76.595C31.265-117.601,29.969-116.858,28.678-116.109z
			 M425.701-128.377c-1.348-0.674-2.699-1.341-4.055-2.001l38.525-79.119c1.633,0.795,3.261,1.599,4.885,2.41L425.701-128.377z
			 M81.08-141.793l-33.094-81.54c1.682-0.683,3.368-1.356,5.058-2.021l32.213,81.892C83.86-142.913,82.468-142.356,81.08-141.793z
			 M371.725-150.791c-1.426-0.478-2.854-0.947-4.286-1.409l27.037-83.744c1.738,0.561,3.472,1.131,5.2,1.71L371.725-150.791z
			 M136.598-159.901l-21.35-85.371c1.763-0.44,3.528-0.872,5.297-1.294l20.415,85.6C139.504-160.62,138.05-160.265,136.598-159.901z
			 M315.16-165.406c-1.472-0.272-2.943-0.536-4.419-0.792l15.055-86.703c1.792,0.312,3.581,0.632,5.368,0.962L315.16-165.406z
			 M194.115-170.06l-9.214-87.517c1.801-0.189,3.604-0.37,5.411-0.541l8.287,87.609C197.102-170.366,195.607-170.217,194.115-170.06
			z M257.083-171.983c-1.497-0.065-2.996-0.123-4.497-0.172l2.9-87.952c1.815,0.06,3.629,0.129,5.439,0.208L257.083-171.983z"/>
	</g>
</g>
<g id="Layer_6">
	<circle fill="none" stroke="#829D8F" stroke-width="5" stroke-miterlimit="10" cx="238.559" cy="246.56" r="392.449"/>
	<path fill="none" stroke="#829D8F" stroke-width="5" stroke-miterlimit="10" d="M238.373-143.495
		c-305.726,61.7-303.001,721.137,0.186,781.061"/>
	<path fill="none" stroke="#829D8F" stroke-width="5" stroke-miterlimit="10" d="M238.039,637.087
		c305.354-61.626,303.906-720.731,1.087-780.582"/>
	
		<line fill="none" stroke="#829D8F" stroke-width="5" stroke-miterlimit="10" x1="238.559" y1="-143.871" x2="238.559" y2="637.138"/>
	<line fill="none" stroke="#829D8F" stroke-width="5" stroke-miterlimit="10" x1="-155.39" y1="246.63" x2="632.507" y2="246.63"/>
</g>
<g id="Capa_1">
	<path fill="#FFFFFF" d="M493.85-2.126c-15.93-15.93-43.807-15.931-59.736,0L324.593,107.392L65.73,47.655L25.906,87.479
		l209.08,109.52l-109.518,109.52l-69.694-9.956L25.906,326.43l89.605,49.782l49.782,89.607l29.869-29.871l-9.956-69.693
		l109.518-109.519l109.519,209.083l39.824-39.826L384.33,167.129L493.85,57.611C509.78,41.681,509.78,13.805,493.85-2.126z"/>
	<g>
		<path fill="#FFFFFF" d="M-2146.199,141.31c-8.87-11.2-20.891-19.479-36.05-24.85c-15.17-5.359-29.521-8.05-43.05-8.05
			c-7.94,0-16.1,0.94-24.5,2.8c-8.4,1.871-16.34,4.791-23.8,8.75c-7.47,3.97-13.541,9.22-18.2,15.75c-4.67,6.541-7,14.47-7,23.8
			c0,14.94,5.6,26.37,16.8,34.3c11.2,7.94,25.309,14.7,42.35,20.3c17.029,5.6,35.35,11.2,54.95,16.8s37.91,13.541,54.95,23.8
			c17.03,10.271,31.15,24.041,42.35,41.3c11.2,17.27,16.8,40.37,16.8,69.3c0,27.54-5.141,51.57-15.4,72.101
			c-10.271,20.54-24.15,37.57-41.65,51.1c-17.5,13.541-37.8,23.57-60.9,30.1c-23.1,6.529-47.49,9.801-73.15,9.801
			c-32.2,0-62.07-4.9-89.6-14.701c-27.541-9.799-53.2-25.658-77-47.6l77.7-85.4c11.2,14.941,25.31,26.491,42.35,34.65
			c17.03,8.17,34.65,12.25,52.85,12.25c8.859,0,17.85-1.05,26.95-3.15c9.1-2.1,17.259-5.25,24.5-9.449
			c7.23-4.2,13.06-9.56,17.5-16.1c4.43-6.53,6.65-14.23,6.65-23.101c0-14.93-5.72-26.71-17.15-35.351
			c-11.44-8.629-25.791-15.979-43.05-22.049c-17.271-6.061-35.941-12.131-56-18.201c-20.07-6.059-38.741-14.229-56-24.5
			c-17.271-10.259-31.621-23.799-43.05-40.6c-11.44-16.8-17.15-38.959-17.15-66.5c0-26.6,5.25-49.93,15.75-70
			c10.5-20.059,24.5-36.859,42-50.4c17.5-13.53,37.68-23.68,60.55-30.45c22.859-6.76,46.43-10.15,70.7-10.15
			c28,0,55.06,3.971,81.2,11.9c26.129,7.94,49.7,21.24,70.7,39.9L-2146.199,141.31z"/>
		<path fill="#FFFFFF" d="M-1985.206,20.209h109.2v394.8h202.3v100.8h-311.5V20.209z"/>
		<path fill="#FFFFFF" d="M-1609.315,20.209h336.7v100.8h-227.5v92.4h214.9v100.799h-214.9V415.01h240.1v100.8h-349.3V20.209z"/>
		<path fill="#FFFFFF" d="M-1168.322,20.209h336.7v100.8h-227.5v92.4h214.9v100.799h-214.9V415.01h240.101v100.8h-349.3V20.209z"/>
		<path fill="#FFFFFF" d="M-731.53,20.209h184.1c25.659,0,49.93,2.341,72.8,7c22.859,4.67,42.81,12.72,59.851,24.15
			c17.029,11.441,30.559,26.841,40.6,46.2c10.029,19.37,15.05,43.75,15.05,73.15c0,28.941-4.67,53.2-14,72.8
			c-9.341,19.6-22.17,35.24-38.5,46.9c-16.341,11.67-35.7,19.949-58.1,24.85c-22.4,4.9-46.671,7.35-72.8,7.35h-79.801v193.2H-731.53
			V20.209z M-622.331,230.209h72.801c9.8,0,19.25-0.93,28.35-2.8c9.1-1.859,17.26-5.009,24.5-9.45c7.229-4.43,13.06-10.5,17.5-18.2
			c4.43-7.7,6.65-17.38,6.65-29.05c0-12.6-2.921-22.75-8.75-30.45c-5.841-7.7-13.301-13.65-22.4-17.85
			c-9.1-4.2-19.25-6.88-30.45-8.05c-11.2-1.159-21.94-1.75-32.2-1.75h-56V230.209z"/>
	</g>
	<g>
		<path fill="#FFFFFF" d="M1102.613,141.31c-8.87-11.2-20.891-19.479-36.05-24.85c-15.171-5.359-29.521-8.05-43.05-8.05
			c-7.941,0-16.1,0.94-24.5,2.8c-8.4,1.871-16.341,4.791-23.801,8.75c-7.47,3.97-13.54,9.22-18.199,15.75
			c-4.67,6.541-7,14.47-7,23.8c0,14.94,5.6,26.37,16.8,34.3c11.2,7.94,25.31,14.7,42.351,20.3c17.029,5.6,35.35,11.2,54.949,16.8
			s37.91,13.541,54.95,23.8c17.03,10.271,31.149,24.04,42.351,41.3c11.199,17.271,16.799,40.371,16.799,69.301
			c0,27.54-5.141,51.57-15.399,72.1c-10.271,20.541-24.149,37.57-41.649,51.1c-17.5,13.541-37.801,23.57-60.9,30.1
			c-23.1,6.53-47.49,9.801-73.15,9.801c-32.199,0-62.07-4.9-89.6-14.7c-27.541-9.8-53.2-25.659-77-47.601l77.699-85.399
			c11.201,14.94,25.311,26.491,42.351,34.649c17.03,8.171,34.649,12.25,52.851,12.25c8.859,0,17.85-1.049,26.949-3.149
			s17.26-5.25,24.5-9.45c7.23-4.199,13.06-9.559,17.5-16.1c4.43-6.529,6.65-14.23,6.65-23.1c0-14.93-5.721-26.71-17.15-35.351
			c-11.44-8.63-25.791-15.979-43.05-22.05c-17.271-6.06-35.94-12.13-56-18.2c-20.07-6.06-38.741-14.229-56-24.5
			c-17.271-10.259-31.62-23.8-43.05-40.6c-11.441-16.8-17.15-38.959-17.15-66.5c0-26.6,5.25-49.93,15.75-70
			c10.5-20.059,24.5-36.859,42-50.4c17.5-13.53,37.68-23.68,60.551-30.45c22.859-6.76,46.43-10.15,70.699-10.15
			c28,0,55.06,3.971,81.2,11.9c26.13,7.94,49.7,21.24,70.7,39.9L1102.613,141.31z"/>
		<path fill="#FFFFFF" d="M1259.406,20.21h109.2v184.8h212.101V20.21h109.199v495.601h-109.199V301.609h-212.101v214.201h-109.2
			V20.21z"/>
		<path fill="#FFFFFF" d="M1789.297,20.21h109.201v495.601h-109.201V20.21z"/>
		<path fill="#FFFFFF" d="M2002.091,20.21h332.5v100.8h-223.3v100.8h206.5v100.799h-206.5v193.201h-109.2V20.21z"/>
		<path fill="#FFFFFF" d="M2508.881,116.81h-141.399v-96.6h392.001v96.6h-141.4v399h-109.201V116.81z"/>
	</g>
</g>
</svg>
